<svg width="59" height="40" viewBox="0 0 59 40" fill="none" xmlns="http://www.w3.org/2000/svg">
<rect x="0.5" y="0.5" width="58" height="39" rx="7.5" fill="white"/>
<path d="M12.912 25V23.784C13.6373 23.208 14.3307 22.6267 14.992 22.04C15.6533 21.4533 16.24 20.8773 16.752 20.312C17.2747 19.736 17.6853 19.176 17.984 18.632C18.2827 18.0773 18.432 17.544 18.432 17.032C18.432 16.6907 18.3733 16.3707 18.256 16.072C18.1387 15.7627 17.9467 15.5173 17.68 15.336C17.4133 15.144 17.056 15.048 16.608 15.048C15.936 15.048 15.4293 15.2613 15.088 15.688C14.7573 16.1147 14.5973 16.6267 14.608 17.224H12.96C12.9707 16.4347 13.136 15.7733 13.456 15.24C13.7867 14.7067 14.224 14.3013 14.768 14.024C15.3227 13.7467 15.9467 13.608 16.64 13.608C17.696 13.608 18.5387 13.9067 19.168 14.504C19.808 15.0907 20.128 15.912 20.128 16.968C20.128 17.5973 19.9733 18.2213 19.664 18.84C19.3653 19.4587 18.9707 20.056 18.48 20.632C18 21.1973 17.4827 21.7307 16.928 22.232C16.3733 22.7333 15.8453 23.1867 15.344 23.592H20.464V25H12.912ZM28.5795 20.616L25.6195 16.424H27.2195L29.4275 19.656L31.6195 16.424H33.2035L30.2435 20.616L33.3635 25H31.7635L29.4275 21.576L27.0595 25H25.4755L28.5795 20.616ZM38.5995 25V23.784C39.3248 23.208 40.0182 22.6267 40.6795 22.04C41.3408 21.4533 41.9275 20.8773 42.4395 20.312C42.9622 19.736 43.3728 19.176 43.6715 18.632C43.9702 18.0773 44.1195 17.544 44.1195 17.032C44.1195 16.6907 44.0608 16.3707 43.9435 16.072C43.8262 15.7627 43.6342 15.5173 43.3675 15.336C43.1008 15.144 42.7435 15.048 42.2955 15.048C41.6235 15.048 41.1168 15.2613 40.7755 15.688C40.4448 16.1147 40.2848 16.6267 40.2955 17.224H38.6475C38.6582 16.4347 38.8235 15.7733 39.1435 15.24C39.4742 14.7067 39.9115 14.3013 40.4555 14.024C41.0102 13.7467 41.6342 13.608 42.3275 13.608C43.3835 13.608 44.2262 13.9067 44.8555 14.504C45.4955 15.0907 45.8155 15.912 45.8155 16.968C45.8155 17.5973 45.6608 18.2213 45.3515 18.84C45.0528 19.4587 44.6582 20.056 44.1675 20.632C43.6875 21.1973 43.1702 21.7307 42.6155 22.232C42.0608 22.7333 41.5328 23.1867 41.0315 23.592H46.1515V25H38.5995Z" fill="black"/>
<rect x="0.5" y="0.5" width="58" height="39" rx="7.5" stroke="#DDE5E9"/>
</svg>
