<svg width="60" height="40" viewBox="0 0 60 40" fill="none" xmlns="http://www.w3.org/2000/svg">
<rect x="0.5" y="0.5" width="59" height="39" rx="7.5" fill="white"/>
<path d="M16.72 25.192C15.9947 25.192 15.3333 25.064 14.736 24.808C14.1493 24.5413 13.68 24.1413 13.328 23.608C12.976 23.0747 12.7893 22.408 12.768 21.608H14.448C14.4693 22.2053 14.672 22.712 15.056 23.128C15.4507 23.5333 16.0053 23.736 16.72 23.736C17.4027 23.736 17.9253 23.5493 18.288 23.176C18.6507 22.792 18.832 22.3173 18.832 21.752C18.832 21.0693 18.5867 20.5627 18.096 20.232C17.616 19.9013 17.024 19.736 16.32 19.736H15.488V18.328H16.336C16.9653 18.328 17.472 18.1787 17.856 17.88C18.2507 17.5813 18.448 17.16 18.448 16.616C18.448 16.1573 18.2933 15.784 17.984 15.496C17.6853 15.208 17.2587 15.064 16.704 15.064C16.128 15.064 15.6747 15.2347 15.344 15.576C15.0133 15.9067 14.832 16.3227 14.8 16.824H13.12C13.1413 16.1733 13.3013 15.608 13.6 15.128C13.9093 14.648 14.3307 14.2747 14.864 14.008C15.3973 13.7413 16.0107 13.608 16.704 13.608C17.4507 13.608 18.0747 13.7413 18.576 14.008C19.088 14.264 19.472 14.616 19.728 15.064C19.9947 15.5013 20.128 15.9813 20.128 16.504C20.128 17.1013 19.9627 17.624 19.632 18.072C19.3013 18.52 18.8587 18.8187 18.304 18.968C18.944 19.1067 19.472 19.4213 19.888 19.912C20.304 20.392 20.512 21.016 20.512 21.784C20.512 22.4027 20.368 22.9733 20.08 23.496C19.792 24.008 19.3653 24.4187 18.8 24.728C18.2347 25.0373 17.5413 25.192 16.72 25.192ZM28.892 20.616L25.932 16.424H27.532L29.74 19.656L31.932 16.424H33.516L30.556 20.616L33.676 25H32.076L29.74 21.576L27.372 25H25.788L28.892 20.616ZM42.72 25.192C41.9947 25.192 41.3333 25.064 40.736 24.808C40.1493 24.5413 39.68 24.1413 39.328 23.608C38.976 23.0747 38.7893 22.408 38.768 21.608H40.448C40.4693 22.2053 40.672 22.712 41.056 23.128C41.4507 23.5333 42.0053 23.736 42.72 23.736C43.4027 23.736 43.9253 23.5493 44.288 23.176C44.6507 22.792 44.832 22.3173 44.832 21.752C44.832 21.0693 44.5867 20.5627 44.096 20.232C43.616 19.9013 43.024 19.736 42.32 19.736H41.488V18.328H42.336C42.9653 18.328 43.472 18.1787 43.856 17.88C44.2507 17.5813 44.448 17.16 44.448 16.616C44.448 16.1573 44.2933 15.784 43.984 15.496C43.6853 15.208 43.2587 15.064 42.704 15.064C42.128 15.064 41.6747 15.2347 41.344 15.576C41.0133 15.9067 40.832 16.3227 40.8 16.824H39.12C39.1413 16.1733 39.3013 15.608 39.6 15.128C39.9093 14.648 40.3307 14.2747 40.864 14.008C41.3973 13.7413 42.0107 13.608 42.704 13.608C43.4507 13.608 44.0747 13.7413 44.576 14.008C45.088 14.264 45.472 14.616 45.728 15.064C45.9947 15.5013 46.128 15.9813 46.128 16.504C46.128 17.1013 45.9627 17.624 45.632 18.072C45.3013 18.52 44.8587 18.8187 44.304 18.968C44.944 19.1067 45.472 19.4213 45.888 19.912C46.304 20.392 46.512 21.016 46.512 21.784C46.512 22.4027 46.368 22.9733 46.08 23.496C45.792 24.008 45.3653 24.4187 44.8 24.728C44.2347 25.0373 43.5413 25.192 42.72 25.192Z" fill="black"/>
<rect x="0.5" y="0.5" width="59" height="39" rx="7.5" stroke="#DDE5E9"/>
</svg>
